# xmcd
#
# Track frame offsets: 
#        150
#        11530
#        24945
#        39443
#        47433
#        63600
#        71585
#        81998
#        89748
#        101093
#        114470
#        124423
#        141605
#        152055
#        166415
#        180668
#        193605
#
# Disc length: 2775 seconds
#
# Revision: 2
# Processed by: cddbd v1.5.2PL0 Copyright (c) Steve Scherf et al.
# Submitted via: ExactAudioCopy v0.99pb4
#
DISCID=ee0ad511
DTITLE=Bing Crosby - The Legendary Bing Crosby
DYEAR=1999
DGENRE=Blues
TTITLE0=Lady Of Spain
TTITLE1=The Very Thought Of You
TTITLE2=June In Januray
TTITLE3=Zip-A-Dee-Doo-Dah
TTITLE4=P.S. I Love You
TTITLE5=If This Isn't Love
TTITLE6=Ole Buttermilk Sky
TTITLE7=Great Day
TTITLE8=I Got The Sun In The Morning
TTITLE9=May I?
TTITLE10=It's A Good Day
TTITLE11=You Go To My Head
TTITLE12=The Old Lamplighter
TTITLE13=With Every Breath I Take
TTITLE14=Temptation
TTITLE15=You're Getting To Be A Habit With Me
TTITLE16=Someday, Sweetheart
EXTD=YEAR: 1995
EXTT0=
EXTT1=
EXTT2=
EXTT3=
EXTT4=
EXTT5=
EXTT6=
EXTT7=
EXTT8=
EXTT9=
EXTT10=
EXTT11=
EXTT12=
EXTT13=
EXTT14=
EXTT15=
EXTT16=
PLAYORDER=
